# xmcd
#
# Track frame offsets:
#   150
#   15930
#   29902
#   43896
#   58516
#   74570
#   88360
#   103935
#   120809
#   138147
#   155904
#   171162
#   186208
#   201473
#
# Disc length: 2870 seconds
#
# Revision: 0
# Processed by: cddbd v1.5.2PL0 Copyright (c) Steve Scherf et al.
# Submitted via: uFREEDB ActiveX Control 1.5
#
DISCID=cf0b340e
DTITLE=Tonny e kleber - tk
DYEAR=1900
DGENRE=Country
TTITLE0=faixa01
TTITLE1=faixa02
TTITLE2=faixa03
TTITLE3=faixa04
TTITLE4=faixa05
TTITLE5=faixa06
TTITLE6=faixa07
TTITLE7=faixa08
TTITLE8=faixa09
TTITLE9=faixa10
TTITLE10=faixa11
TTITLE11=faixa12
TTITLE12=faixa13
TTITLE13=faixa14
EXTD=
EXTT0=
EXTT1=
EXTT2=
EXTT3=
EXTT4=
EXTT5=
EXTT6=
EXTT7=
EXTT8=
EXTT9=
EXTT10=
EXTT11=
EXTT12=
EXTT13=
PLAYORDER=
